<?xml version="1.0" ?><svg height="512" id="svg2" overflow="visible" style="fill-rule:evenodd;stroke-width:0.50099999;stroke-linejoin:bevel;overflow:visible" version="1.1" viewBox="0 0 409.6 409.6" width="512" xmlns="http://www.w3.org/2000/svg" xmlns:cc="http://creativecommons.org/ns#" xmlns:dc="http://purl.org/dc/elements/1.1/" xmlns:inkscape="http://www.inkscape.org/namespaces/inkscape" xmlns:rdf="http://www.w3.org/1999/02/22-rdf-syntax-ns#" xmlns:sodipodi="http://sodipodi.sourceforge.net/DTD/sodipodi-0.dtd" xmlns:svg="http://www.w3.org/2000/svg"><defs id="defs4"><marker id="DefaultArrow2" markerHeight="1" markerUnits="strokeWidth" markerWidth="1" orient="auto" overflow="visible" style="overflow:visible" viewBox="0 0 1 1"><g id="g7" transform="scale(0.00925926,0.00925926)"><path d="M -9,54 -9,-54 117,0 z" id="path9"/></g></marker><marker id="DefaultArrow3" markerHeight="1" markerUnits="strokeWidth" markerWidth="1" orient="auto" overflow="visible" style="overflow:visible" viewBox="0 0 1 1"><g id="g12" transform="scale(0.00925926,0.00925926)"><path d="M -27,54 -9,0 -27,-54 135,0 z" id="path14"/></g></marker><marker id="DefaultArrow4" markerHeight="1" markerUnits="strokeWidth" markerWidth="1" orient="auto" overflow="visible" style="overflow:visible" viewBox="0 0 1 1"><g id="g17" transform="scale(0.00925926,0.00925926)"><path d="M -9,0 -9,-45 C -9,-51.708 2.808,-56.58 9,-54 L 117,-9 C 120.916,-7.369 126,-4.242 126,0 126,4.242 120.916,7.369 117,9 L 9,54 C 2.808,56.58 -9,51.708 -9,45 z" id="path19"/></g></marker><marker id="DefaultArrow5" markerHeight="1" markerUnits="strokeWidth" markerWidth="1" orient="auto" overflow="visible" style="overflow:visible" viewBox="0 0 1 1"><g id="g22" transform="scale(0.00925926,0.00925926)"><path d="M -54,0 C -54,29.807 -29.807,54 0,54 29.807,54 54,29.807 54,0 54,-29.807 29.807,-54 0,-54 -29.807,-54 -54,-29.807 -54,0 z" id="path24"/></g></marker><marker id="DefaultArrow6" markerHeight="1" markerUnits="strokeWidth" markerWidth="1" orient="auto" overflow="visible" style="overflow:visible" viewBox="0 0 1 1"><g id="g27" transform="scale(0.00925926,0.00925926)"><path d="M -63,0 0,63 63,0 0,-63 z" id="path29"/></g></marker><marker id="DefaultArrow7" markerHeight="1" markerUnits="strokeWidth" markerWidth="1" orient="auto" overflow="visible" style="overflow:visible" viewBox="0 0 1 1"><g id="g32" transform="scale(0.00925926,0.00925926)"><path d="M 18,-54 108,-54 63,0 108,54 18,54 -36,0 z" id="path34"/></g></marker><marker id="DefaultArrow8" markerHeight="1" markerUnits="strokeWidth" markerWidth="1" orient="auto" overflow="visible" style="overflow:visible" viewBox="0 0 1 1"><g id="g37" transform="scale(0.00925926,0.00925926)"><path d="M -36,0 18,-54 54,-54 18,-18 27,-18 63,-54 99,-54 63,-18 72,-18 108,-54 144,-54 90,0 144,54 108,54 72,18 63,18 99,54 63,54 27,18 18,18 54,54 18,54 z" id="path39"/></g></marker><marker id="DefaultArrow9" markerHeight="1" markerUnits="strokeWidth" markerWidth="1" orient="auto" overflow="visible" style="overflow:visible" viewBox="0 0 1 1"><g id="g42" transform="scale(0.00925926,0.00925926)"><path d="M 0,45 -45,0 0,-45 45,0 z M 0,63 -63,0 0,-63 63,0 z" id="path44"/></g></marker><filter color-interpolation-filters="sRGB" id="StainedFilter"><feBlend id="feBlend47" in="SourceGraphic" in2="BackgroundImage" mode="multiply" result="blend"/><feComposite id="feComposite49" in="blend" in2="SourceAlpha" operator="in" result="comp"/></filter><filter color-interpolation-filters="sRGB" id="BleachFilter"><feBlend id="feBlend52" in="SourceGraphic" in2="BackgroundImage" mode="screen" result="blend"/><feComposite id="feComposite54" in="blend" in2="SourceAlpha" operator="in" result="comp"/></filter><filter color-interpolation-filters="sRGB" id="InvertTransparencyBitmapFilter"><feComponentTransfer id="feComponentTransfer57"><feFuncR amplitude="1.055" exponent=".416666666" id="feFuncR59" offset="-0.055" type="gamma"/><feFuncG amplitude="1.055" exponent=".416666666" id="feFuncG61" offset="-0.055" type="gamma"/><feFuncB amplitude="1.055" exponent=".416666666" id="feFuncB63" offset="-0.055" type="gamma"/></feComponentTransfer><feComponentTransfer id="feComponentTransfer65"><feFuncR id="feFuncR67" intercept="1" slope="-1" type="linear"/><feFuncG id="feFuncG69" intercept="1" slope="-1" type="linear"/><feFuncB id="feFuncB71" intercept="1" slope="-1" type="linear"/><feFuncA id="feFuncA73" intercept="0" slope="1" type="linear"/></feComponentTransfer><feComponentTransfer id="feComponentTransfer75"><feFuncR amplitude="1" exponent="2.4" id="feFuncR77" offset="0" type="gamma"/><feFuncG amplitude="1" exponent="2.4" id="feFuncG79" offset="0" type="gamma"/><feFuncB amplitude="1" exponent="2.4" id="feFuncB81" offset="0" type="gamma"/></feComponentTransfer></filter></defs><g font-size="16" id="Document" style="font-size:16px;fill:none;stroke:#000000;font-family:Times New Roman" transform="matrix(1.0666667,0,0,-1.0665955,-8.9255344e-6,9.604279)"><g id="Spread" transform="translate(0,-384)"><g id="Layer 1"><path d="M 108,155.984 C 127.859,155.984 144,139.843 144,119.984 144,100.125 127.859,83.984 108,83.984 88.141,83.984 72,100.125 72,119.984 72,139.843 88.141,155.984 108,155.984 z" id="path86" style="fill:#000000;stroke:none;stroke-width:233.63200378;marker-start:none;marker-end:none"/><path d="M 0,132 C 0,180 48,228 108,240 132,300 180,324 240,324 324,324 384,252 384,168 L 384,132 C 384,108 372,96 348,96 L 336,96 336,132 348,132 348,168 C 348,241.312 308.304,288 240,288 190.576,287.248 159.808,276.352 136.832,228.064 L 132,216 119.264,213.456 C 81.744,205.488 55.424,182.704 43.424,158.704 39.712,150 37.504,142.832 36,132 L 48,132 48,96 36,96 C 12,96 0,108 0,132 z" id="path88" style="fill:#000000;stroke:none;stroke-width:350.44799805;marker-start:none;marker-end:none"/><path d="M 276,156.001 C 295.86,156.001 312.001,139.86 312.001,120 312.001,100.14 295.86,83.999 276,83.999 256.14,83.999 239.999,100.14 239.999,120 239.999,139.86 256.14,156.001 276,156.001 z" id="path90" style="fill:#000000;stroke:none;stroke-width:233.63200378;marker-start:none;marker-end:none"/><path d="M 184.224,178.4 179.536,180.848 C 172.608,186.288 181.04,190.848 184.048,198.752 178.544,196.912 163.152,190.496 157.616,182.768 157.632,182.752 157.632,182.752 157.6,182.72 155.888,179.008 151.584,177.36 148.048,179.056 144.496,180.8 143.008,185.216 144.72,188.944 L 144.72,188.944 C 147.84,195.808 170.464,203.952 183.248,206.08 179.712,209.472 164.56,209.088 165.392,215.44 165.36,216.32 165.536,217.168 165.936,218.032 166.144,218.416 166.304,218.864 166.496,219.216 166.528,219.264 166.544,219.296 166.544,219.36 L 166.576,219.328 C 178.24,243.008 186.048,249.456 199.952,251.248 222.416,251.424 226.96,237.024 247.776,234.624 264.576,231.92 289.648,240.144 298.944,249.744 270.016,166.208 230.832,155.04 184.224,178.4 z" id="path92" stroke-miterlimit="79.8403193612775" style="fill:#000000;stroke:none;stroke-width:10.47999954;marker-start:none;marker-end:none"/></g></g></g></svg>