<?xml version="1.0" ?><!DOCTYPE svg  PUBLIC '-//W3C//DTD SVG 1.1//EN'  'http://www.w3.org/Graphics/SVG/1.1/DTD/svg11.dtd'><svg enable-background="new 0 0 56.693 56.693" height="56.693px" id="Layer_1" version="1.1" viewBox="0 0 56.693 56.693" width="56.693px" xml:space="preserve" xmlns="http://www.w3.org/2000/svg" xmlns:xlink="http://www.w3.org/1999/xlink"><g><path d="M40.776,14.791h0.516c0.265,0,0.49-0.192,0.53-0.454l0.633-4.107c0.023-0.155-0.021-0.312-0.123-0.431   c-0.102-0.119-0.251-0.188-0.407-0.188h-1.148c-1.409,0-3.455,1.009-3.455,2.59S39.367,14.791,40.776,14.791z" fill="#474A56"/><path d="M51.719,32.694c0.052-0.01,0.097-0.021,0.144-0.035c0.55-0.163,2.932-0.863-0.036-3.28   c-2.227-1.816-5.028-1.951-7.168-1.455c0.044-0.189,0.071-0.389,0.071-0.598c0.009-1.275-0.894-2.316-2.016-2.322l-0.343,0.013   l-4.254-9.431c-1.264-0.676-2.298-1.82-2.298-3.384c0-0.422,0.082-0.81,0.217-1.171c-0.291-0.477-0.796-0.809-1.397-0.818   c-0.932-0.017-1.703,0.723-1.72,1.659c-0.002,0.106,0.006,0.214,0.025,0.318l-3.093,2.087c-0.455,0.228-0.631,0.785-0.404,1.235   c0.229,0.446,0.782,0.633,1.236,0.4l3.053-2.069c-0.004,0.241,2.824,10.03,2.824,10.03c-0.413,0.193-0.745,0.548-0.888,1.01   l-4.112,10.205h-7.566c0.397-0.62,1.158-5.599,1.158-5.599c0.021-1.125,0.5-2.063,1.898-2.9c0.812-0.494,1.347-1.312,1.364-2.243   c0.028-1.56-1.395-2.852-3.19-2.885l-13.871-0.275c-1.79-0.034-3.266,1.206-3.295,2.763c-0.012,0.71,0.281,1.367,0.771,1.871   c-1.901,1.083-3.331,2.864-4.158,4.518c-0.793,1.585-2.087,4.626-0.927,6.178c0.503,0.673,1.362,0.579,3.269,0.638v0.002h26.102   c1.653,0,5.714-6.635,6.372-7.778l0.001-0.001v-0.002l1.175,0.255l0.826,0.002c-1.905,2.296-3.241,7.524-3.241,7.524   c0.394,0.008,1.067,0.069,1.913-0.35c0,0.026-0.001,0.053-0.002,0.078c-0.067,3.638,2.828,6.637,6.46,6.705   c3.635,0.066,6.637-2.825,6.704-6.463C53.355,35.433,52.745,33.881,51.719,32.694z M46.681,40.205   c-1.756-0.032-3.15-1.479-3.117-3.234c0.032-1.753,1.479-3.15,3.234-3.117c1.755,0.033,3.15,1.482,3.116,3.234   C49.884,38.844,48.434,40.24,46.681,40.205z" fill="#474A56"/><path d="M13.493,40.092c-1.115-0.019-2.067-0.62-2.612-1.502H7.236c0.702,2.817,3.196,4.939,6.235,4.997   c3.128,0.059,5.755-2.087,6.482-4.997H16.22C15.652,39.505,14.648,40.116,13.493,40.092z" fill="#474A56"/></g></svg>